<?xml version="1.0" encoding="utf-8"?>
<!-- Generator: Adobe Illustrator 27.2.0, SVG Export Plug-In . SVG Version: 6.00 Build 0)  -->
<svg version="1.1" id="Layer_1" xmlns="http://www.w3.org/2000/svg" xmlns:xlink="http://www.w3.org/1999/xlink" x="0px" y="0px"
	 viewBox="0 0 660 660" style="enable-background:new 0 0 660 660;" xml:space="preserve">
<style type="text/css">
	.st0{fill-rule:evenodd;clip-rule:evenodd;fill:#FFFFFF;}
	.st1{fill:none;stroke:#000000;stroke-width:1.5;}
	.st2{fill-rule:evenodd;clip-rule:evenodd;fill:#005A9C;}
	.st3{fill-rule:evenodd;clip-rule:evenodd;fill:#BF2F38;}
</style>
<g>
	<path class="st0" d="M329.3999,639.2032C150.5103,602.8164,19.0449,442.1319,19.0449,258.687
		c0-86.4096,29.8667-173.7631,82.9346-240.4702c34.875,10.6177,75.9492,16.9068,113.8442,16.9068
		c37.9077,0,78.8535-6.064,113.7115-16.6768c34.8691,10.6128,75.8037,16.6768,113.6933,16.6768
		c37.9238,0,78.9815-6.2891,113.8516-16.9068c53.0781,66.7071,82.9453,154.0606,82.9453,240.4702
		C640.0254,442.1319,508.3125,602.8164,329.3999,639.2032z"/>
	<path class="st1" d="M329.3999,639.2032C150.5103,602.8164,19.0449,442.1319,19.0449,258.687
		c0-86.4096,29.8667-173.7631,82.9346-240.4702c34.875,10.6177,75.9492,16.9068,113.8442,16.9068
		c37.9077,0,78.8535-6.064,113.7115-16.6768c34.8691,10.6128,75.8037,16.6768,113.6933,16.6768
		c37.9238,0,78.9815-6.2891,113.8516-16.9068c53.0781,66.7071,82.9453,154.0606,82.9453,240.4702
		C640.0254,442.1319,508.3125,602.8164,329.3999,639.2032z"/>
	<path class="st2" d="M138.1851,519.586c-10.1519-10.9668-20.1353-22.1006-29.2544-33.961
		c-9.1519-11.8974-17.2378-24.6328-24.959-37.5127c-15.6543-26.0947-28.1817-54.6982-36.7339-83.9072
		c-4.396-15.042-7.8042-30.5166-10.4717-45.9473c-2.7065-15.6713-3.8525-31.4721-4.4136-47.3574
		c-1.1343-31.7431,2.1001-63.186,8.917-94.1933c0.8086-3.6827,1.6675-7.3497,2.5826-11.0108
		c0.1347-0.5781,0.4272-3.4927,1.1513-3.6162c1.69-0.2861,3.6836,0.0117,5.396,0.0117c7.7935,0,15.582,0,23.3701,0
		c16.0757,0,32.1402,0,48.2222,0c32.269,0,64.5503,0,96.8252,0c64.5908,0,129.1919,0,193.7817,0c64.5166,0,129.0176,0,193.5342,0
		c1.162,0,8.3379-0.6626,8.7266,0.2354c0.6396,1.4936,0.8418,3.2676,1.1552,4.8515c0.9327,4.7163,1.8926,9.4165,2.876,14.127
		c3.2227,15.5537,5.7227,31.2656,6.9844,47.1045c2.4941,31.5683,1.0107,63.7143-4.5361,94.8896
		c-10.7364,60.211-36.5547,117.6348-74.1983,165.8291c-18.2422,23.376-39.2929,44.8477-62.5615,63.2315
		c-11.6748,9.2314-23.7637,18.0967-36.4199,25.9306c-12.8028,7.9062-26.1778,14.8067-39.7217,21.3086
		c-13.8242,6.6319-28.1143,12.0567-42.7197,16.6495c-7.2989,2.29-14.6436,4.4746-22.0655,6.3955
		c-3.5839,0.9267-7.1992,1.7177-10.8261,2.5263c-1.5899,0.3535-3.1397,0.875-4.7788,0.6065
		c-1.7246-0.2696-3.3858-0.9151-5.0928-1.2979c-30.4224-6.6533-59.542-17.9004-87.1792-32.123
		c-17.8106-9.1641-35.0659-19.6758-51.1314-31.6748C168.1138,548.3291,152.8125,534.1114,138.1851,519.586"/>
	<path class="st3" d="M48.5015,149.1602c8.4902-29.1821,20.9218-56.9424,36.3515-83.1089
		c3.8018-6.457,7.7945-12.8018,12.0054-19.0068c2.0156-2.9761,4.0879-5.9239,6.2046-8.8384
		c0.8813-1.2178,1.7295-2.4258,2.5664-3.6778c1.1118-1.6616,2.2344-1.1337,3.9585-0.685
		c15.2222,4.0996,30.7148,7.2661,46.3017,9.602c31.439,4.7168,63.2979,5.772,94.9786,2.9986
		c15.7558-1.3755,31.456-3.605,46.9589-6.7324c7.6192-1.5445,15.1885-3.3072,22.7134-5.2837
		c2.9478-0.7808,7.0518-2.8189,10.107-2.2354c3.5546,0.6909,7.0918,2.0444,10.6123,2.9541
		c61.1132,15.6997,125.25,16.7774,186.9697,3.7896c6.4961-1.3697,12.9648-2.9029,19.3828-4.5874
		c0.6904-0.1797,4.2783-1.7237,4.7334-1.1119c1.9551,2.6397,3.9082,5.2842,5.8018,7.9683
		c7.7421,10.9434,14.9511,22.3027,21.4376,34.0322c12.9531,23.4434,23.2958,48.3125,31.0742,73.9229
		c-64.6465,0-129.2988,0-193.9336,0c-64.668,0-129.314,0-193.9663,0C164.6714,149.1602,106.584,149.1602,48.5015,149.1602"/>
	<path class="st0" d="M527.7354,136.1836v-9.0854h-23.5713v-21.3199h13.375V96.94h-13.375V80.606h21.0781v-9.0689h-30.3887v64.6465
		H527.7354 M486.0098,80.1568v-8.6197h-32.8877v8.6197h11.7802v56.0268h9.3165V80.1568H486.0098z M433.1494,109.4165h-9.2978
		l4.542-18.603L433.1494,109.4165z M449.2539,136.1836l-16.1045-64.6465h-9.0615l-16.1113,64.6465h9.2988l4.3135-17.6933h13.8349
		l4.5313,17.6933H449.2539z M404.1084,80.1568v-8.6197h-32.8818v8.6197h11.792v56.0268h9.2988V80.1568H404.1084z M365.3311,118.4903
		c0-9.3037-5.4405-16.334-17.9229-23.5884c-4.7666-2.7232-6.1328-4.5376-6.1328-7.7212c0-4.3115,3.4092-7.4844,7.7148-7.4844
		c4.0948,0,7.2618,2.9531,7.4854,7.4844h8.8555c-0.2295-9.7529-7.2598-16.7832-16.3409-16.7832
		c-9.2968,0-16.5468,7.4902-16.5468,16.7832c0,5.6772,2.7187,10.6748,7.9296,14.2959c13.167,8.8442,9.5284,6.3452,10.8926,7.71
		c3.8574,2.9477,5.21,5.6708,5.21,9.3037c0,5.205-4.082,9.7534-9.0674,9.7534c-6.3506,0-9.0625-5.6709-9.0625-11.1172h-9.0796
		c0,10.6626,6.7944,20.2246,18.1421,20.2246C357.3965,137.3511,365.3311,128.9175,365.3311,118.4903z M312.7075,88.7696
		c0,5.2168-2.9492,8.1704-8.3955,8.1704h-9.5288V80.606h9.5288C309.2988,80.606,312.7075,83.7837,312.7075,88.7696z
		 M321.7808,136.1836l-9.3042-31.7593c6.1308-2.268,9.3042-7.9448,9.3042-15.6547c0-10.4322-6.8062-17.2325-17.0079-17.2325H285.479
		v64.6465h9.3042v-30.4053h8.8438l8.6254,30.4053H321.7808z M274.5977,136.1836v-9.0854h-23.5884v-21.3199h13.375V96.94h-13.375
		V80.606h21.084v-9.0689h-30.3829v64.6465H274.5977z M232.8608,80.1568v-8.6197h-32.893v8.6197h11.7973v56.0268h9.2989V80.1568
		H232.8608z M191.124,136.1836V71.5371h-9.3042v38.7837L164.127,71.5371h-9.3042v64.6465h9.3042V92.8579l19.9555,43.3257H191.124z
		 M131.6943,136.1836h9.0684V71.5371h-9.0684V136.1836z"/>
</g>
</svg>
