<?xml version="1.0" encoding="utf-8"?>
<!-- Generator: Adobe Illustrator 27.2.0, SVG Export Plug-In . SVG Version: 6.00 Build 0)  -->
<svg version="1.1" id="Layer_1" xmlns="http://www.w3.org/2000/svg" xmlns:xlink="http://www.w3.org/1999/xlink" x="0px" y="0px"
	 viewBox="0 0 512 512" style="enable-background:new 0 0 512 512;" xml:space="preserve">
<style type="text/css">
	.st0{fill:#FFD24F;}
	.st1{fill:none;stroke:#000000;stroke-width:0.5;}
	.st2{fill:none;stroke:#000000;stroke-width:0.648;}
	.st3{fill-rule:evenodd;clip-rule:evenodd;}
	.st4{fill-rule:evenodd;clip-rule:evenodd;fill:#FFFFFF;}
	.st5{fill:#FDD700;}
	.st6{fill-rule:evenodd;clip-rule:evenodd;fill:#BF311A;}
</style>
<path class="st0" d="M479.5,0H32.5"/>
<path class="st1" d="M479.5,0H32.5"/>
<path class="st2" d="M32,0h448c17.6,0,32,14.4,32,32v448c0,17.6-14.4,32-32,32H32c-17.6,0-32-14.4-32-32V32C0,14.4,14.4,0,32,0z"/>
<path class="st3" d="M32.1,8.9h172.5h246.6c12.6,0,32.2-3.5,43,4.9c11.9,9.3,8.9,26.7,8.9,40v239.6v185.8
	c0,15.9-12.7,23.8-27.1,23.8h-74.5H135H44.5c-14.1,0-29.9-0.1-34.7-16.8c-1.4-4.8-0.9-10.1-0.9-15.1v-33V322.5V69.5
	C8.9,50.2,1.7,9,32.1,8.9"/>
<path class="st4" d="M32.3,21.3h172.9h246.5h25.2c3.6,0,6.9,0,9.8,2.4c7.3,6,3.9,23.1,3.9,30.9v240.9v183.7
	c0,9.4-7.8,11.3-15.5,11.3h-76.3h-267H43.2c-7.9,0-19.4,1.8-21.7-8.5c-0.8-3.9-0.2-8.5-0.2-12.4v-34.4V317.8V66.5V32.7
	C21.3,26.5,25.9,21.2,32.3,21.3"/>
<circle class="st5" cx="256.3" cy="255.6" r="0.9"/>
<path class="st6" d="M256,32c123.4,0,224,100.6,224,224c0,123.4-100.6,224-224,224S32,379.4,32,256C32,132.6,132.6,32,256,32
	 M368,398.4c-31.3,24.7-71.6,38.9-112,38.9c-99.9,0-181.3-81.5-181.3-181.3c0-40.4,14.2-81.5,39-112.6L368,398.4z M398.4,367.9
	c24.8-31.2,39-71.5,39-111.9c0-99.9-81.5-181.3-181.3-181.3c-40.4,0-80.7,14.2-112,38.9L398.4,367.9z"/>
</svg>
