<svg width="89" height="89" viewBox="0 0 89 89" fill="none" xmlns="http://www.w3.org/2000/svg">
<g clip-path="url(#clip0_16_2)">
<path d="M44.5 89C42.8377 89 41.2764 88.3537 40.1026 87.1814L1.82018 48.8974C0.646343 47.7236 0 46.1623 0 44.5C0 42.8377 0.646343 41.2764 1.82018 40.1026L40.1042 1.81855C41.2764 0.646343 42.8377 0 44.5016 0C46.1655 0 47.7252 0.646343 48.899 1.81855L87.1815 40.1042C89.6057 42.5284 89.6057 46.4732 87.1815 48.8974L48.8974 87.1814C47.7252 88.3537 46.1639 89 44.5 89Z" fill="black"/>
<path d="M44.5 88.7151C42.9126 88.7151 41.4229 88.0997 40.3045 86.9796L2.02205 48.6972C0.901939 47.5771 0.28653 46.0874 0.28653 44.5016C0.28653 42.9159 0.903568 41.4262 2.02205 40.3061L40.3061 2.02207C41.4246 0.903583 42.9159 0.286545 44.5016 0.286545C46.0874 0.286545 47.5787 0.901955 48.6971 2.02207L86.9812 40.3061C89.2947 42.6196 89.2947 46.3837 86.9812 48.6972L48.6971 86.9796C47.577 88.0997 46.0874 88.7151 44.5 88.7151Z" fill="#FDEF37"/>
<path d="M44.5 86.7923C43.4271 86.7923 42.4193 86.3756 41.6639 85.6201L3.3815 47.3377C1.81693 45.7732 1.81693 43.2285 3.3815 41.6655L41.6639 3.3815C42.4193 2.62608 43.4271 2.20929 44.5 2.20929C45.5729 2.20929 46.5807 2.62608 47.3361 3.3815L85.6201 41.6655C87.1847 43.2301 87.1847 45.7748 85.6201 47.3377L47.3361 85.6201C46.5807 86.3772 45.5745 86.7923 44.5 86.7923Z" fill="black"/>
<path d="M84.4642 42.8215L46.1785 4.53906C45.257 3.61595 43.7462 3.61595 42.8231 4.53906L4.53905 42.8215C3.61593 43.7446 3.61593 45.2554 4.53905 46.1769L42.8231 84.4626C43.7462 85.3841 45.257 85.3841 46.1785 84.4626L84.4642 46.1769C85.3857 45.2571 85.3857 43.7462 84.4642 42.8215Z" fill="#FDEF37"/>
</g>
<defs>
<clipPath id="clip0_16_2">
<rect width="89" height="89" fill="white"/>
</clipPath>
</defs>
</svg>
